<svg width="32" height="22" viewBox="0 0 32 22" fill="none" xmlns="http://www.w3.org/2000/svg">
<path d="M31.0612 10.6246C28.1191 4.88401 22.2944 1 15.625 1C8.95561 1 3.12932 4.88673 0.188773 10.6251C0.0646633 10.8706 0 11.1419 0 11.417C0 11.692 0.0646633 11.9633 0.188773 12.2088C3.13094 17.9494 8.95561 21.8334 15.625 21.8334C22.2944 21.8334 28.1207 17.9466 31.0612 12.2082C31.1853 11.9627 31.25 11.6915 31.25 11.4164C31.25 11.1413 31.1853 10.8701 31.0612 10.6246ZM15.625 19.2292C14.0798 19.2292 12.5694 18.771 11.2846 17.9126C9.99984 17.0541 8.99849 15.834 8.40718 14.4064C7.81587 12.9789 7.66115 11.408 7.9626 9.89254C8.26405 8.37706 9.00812 6.985 10.1007 5.8924C11.1933 4.7998 12.5854 4.05573 14.1009 3.75429C15.6163 3.45284 17.1872 3.60755 18.6147 4.19886C20.0423 4.79017 21.2624 5.79152 22.1209 7.07629C22.9793 8.36105 23.4375 9.87152 23.4375 11.4167C23.438 12.4428 23.2363 13.4589 22.8438 14.407C22.4514 15.3551 21.876 16.2165 21.1504 16.9421C20.4248 17.6676 19.5634 18.2431 18.6153 18.6355C17.6672 19.028 16.6511 19.2297 15.625 19.2292ZM15.625 6.20834C15.1601 6.21484 14.6982 6.284 14.2518 6.41396C14.6198 6.914 14.7964 7.52936 14.7495 8.14842C14.7027 8.76749 14.4356 9.34927 13.9966 9.78827C13.5576 10.2273 12.9758 10.4944 12.3567 10.5412C11.7377 10.5881 11.1223 10.4115 10.6223 10.0435C10.3375 11.0926 10.3889 12.2045 10.7692 13.2228C11.1495 14.2411 11.8396 15.1145 12.7423 15.7201C13.645 16.3256 14.7148 16.6329 15.8013 16.5986C16.8878 16.5642 17.9361 16.1901 18.7988 15.5287C19.6614 14.8674 20.295 13.9522 20.6103 12.9119C20.9255 11.8716 20.9067 10.7587 20.5563 9.72971C20.2059 8.70073 19.5416 7.80754 18.657 7.17585C17.7724 6.54416 16.712 6.20578 15.625 6.20834Z" fill="#E5CEEA"/>
</svg>
