<svg width="80" height="80" viewBox="0 0 80 80" fill="none" xmlns="http://www.w3.org/2000/svg">
<path d="M67.5 5H12.5C10.5109 5 8.60322 5.79018 7.1967 7.1967C5.79018 8.60322 5 10.5109 5 12.5L5 67.5C5 69.4891 5.79018 71.3968 7.1967 72.8033C8.60322 74.2098 10.5109 75 12.5 75H33.9453V51.2016H24.1016V40H33.9453V31.4625C33.9453 21.7516 39.7266 16.3875 48.5813 16.3875C52.8219 16.3875 57.2562 17.1438 57.2562 17.1438V26.675H52.3703C47.5563 26.675 46.0547 29.6625 46.0547 32.7266V40H56.8016L55.0828 51.2016H46.0547V75H67.5C69.4891 75 71.3968 74.2098 72.8033 72.8033C74.2098 71.3968 75 69.4891 75 67.5V12.5C75 10.5109 74.2098 8.60322 72.8033 7.1967C71.3968 5.79018 69.4891 5 67.5 5Z" fill="#9C9999"/>
</svg>
