<svg width="80" height="80" viewBox="0 0 80 80" fill="none" xmlns="http://www.w3.org/2000/svg">
<path d="M67.5 5H12.5C8.35938 5 5 8.35938 5 12.5V67.5C5 71.6406 8.35938 75 12.5 75H67.5C71.6406 75 75 71.6406 75 67.5V12.5C75 8.35938 71.6406 5 67.5 5ZM59.8594 29.8125C59.8906 30.25 59.8906 30.7031 59.8906 31.1406C59.8906 44.6875 49.5781 60.2969 30.7344 60.2969C24.9219 60.2969 19.5312 58.6094 15 55.7031C15.8281 55.7969 16.625 55.8281 17.4688 55.8281C22.2656 55.8281 26.6719 54.2031 30.1875 51.4531C25.6875 51.3594 21.9062 48.4062 20.6094 44.3438C22.1875 44.5781 23.6094 44.5781 25.2344 44.1562C20.5469 43.2031 17.0312 39.0781 17.0312 34.0938V33.9688C18.3906 34.7344 19.9844 35.2031 21.6562 35.2656C20.2507 34.3307 19.0984 33.0623 18.3023 31.5737C17.5062 30.0851 17.091 28.4225 17.0938 26.7344C17.0938 24.8281 17.5938 23.0781 18.4844 21.5625C23.5312 27.7812 31.1094 31.8438 39.6094 32.2812C38.1562 25.3281 43.3594 19.6875 49.6094 19.6875C52.5625 19.6875 55.2188 20.9219 57.0938 22.9219C59.4062 22.4844 61.625 21.625 63.5938 20.4531C62.8281 22.8281 61.2188 24.8281 59.0938 26.0938C61.1562 25.875 63.1562 25.2969 65 24.5C63.6094 26.5469 61.8594 28.3594 59.8594 29.8125Z" fill="#9C9999"/>
</svg>
