<svg width="79" height="72" viewBox="0 0 79 72" fill="none" xmlns="http://www.w3.org/2000/svg">
<g filter="url(#filter0_d_13_166)">
<path d="M64.1813 41.5075L69.9262 16.2298C70.341 14.4047 68.9538 12.6667 67.0821 12.6667H19.3482L18.2343 7.22103C17.9567 5.86369 16.7623 4.88892 15.3768 4.88892H2.91667C1.30582 4.88892 0 6.19473 0 7.80558V9.75003C0 11.3609 1.30582 12.6667 2.91667 12.6667H11.4094L19.9465 54.4036C17.9041 55.5782 16.5278 57.7805 16.5278 60.3056C16.5278 64.0642 19.5747 67.1111 23.3333 67.1111C27.0919 67.1111 30.1389 64.0642 30.1389 60.3056C30.1389 58.4008 29.3554 56.6798 28.0943 55.4445H53.5722C52.3113 56.6798 51.5278 58.4008 51.5278 60.3056C51.5278 64.0642 54.5747 67.1111 58.3333 67.1111C62.0919 67.1111 65.1389 64.0642 65.1389 60.3056C65.1389 57.6111 63.5726 55.2826 61.3012 54.18L61.9716 51.2298C62.3864 49.4047 60.9992 47.6667 59.1275 47.6667H26.5073L25.7119 43.7778H61.3371C62.699 43.7778 63.8795 42.8355 64.1813 41.5075Z" fill="#9C9999"/>
</g>
<defs>
<filter id="filter0_d_13_166" x="0" y="0.888916" width="79" height="70.2222" filterUnits="userSpaceOnUse" color-interpolation-filters="sRGB">
<feFlood flood-opacity="0" result="BackgroundImageFix"/>
<feColorMatrix in="SourceAlpha" type="matrix" values="0 0 0 0 0 0 0 0 0 0 0 0 0 0 0 0 0 0 127 0" result="hardAlpha"/>
<feOffset dx="5"/>
<feGaussianBlur stdDeviation="2"/>
<feComposite in2="hardAlpha" operator="out"/>
<feColorMatrix type="matrix" values="0 0 0 0 0 0 0 0 0 0 0 0 0 0 0 0 0 0 0.25 0"/>
<feBlend mode="normal" in2="BackgroundImageFix" result="effect1_dropShadow_13_166"/>
<feBlend mode="normal" in="SourceGraphic" in2="effect1_dropShadow_13_166" result="shape"/>
</filter>
</defs>
</svg>
