<svg width="62" height="48" viewBox="0 0 62 48" fill="none" xmlns="http://www.w3.org/2000/svg">
<g filter="url(#filter0_d_13_149)">
<path d="M49.9775 20.8996L48.6969 17.6981L46.4263 12.0208C44.4769 7.14795 39.8273 4 34.5784 4H20.109C14.8613 4 10.2106 7.14795 8.26123 12.0208L5.99056 17.6981L4.70996 20.8996C1.96191 21.9443 0 24.583 0 27.6979V33.1667C0 35.0033 0.701823 36.661 1.82292 37.9438V44.1042C1.82292 46.1173 3.45557 47.75 5.46875 47.75H9.11458C11.1278 47.75 12.7604 46.1173 12.7604 44.1042V40.4583H41.9271V44.1042C41.9271 46.1173 43.5597 47.75 45.5729 47.75H49.2188C51.2319 47.75 52.8646 46.1173 52.8646 44.1042V37.9438C53.9857 36.6621 54.6875 35.0044 54.6875 33.1667V27.6979C54.6875 24.583 52.7256 21.9443 49.9775 20.8996ZM15.0311 14.729C15.8617 12.6532 17.8726 11.2917 20.109 11.2917H34.5784C36.8149 11.2917 38.8258 12.6532 39.6564 14.729L41.9271 20.4062H12.7604L15.0311 14.729ZM9.11458 33.1439C6.92708 33.1439 5.46875 31.6901 5.46875 29.5094C5.46875 27.3288 6.92708 25.875 9.11458 25.875C11.3021 25.875 14.5833 29.146 14.5833 31.3267C14.5833 33.5073 11.3021 33.1439 9.11458 33.1439ZM45.5729 33.1439C43.3854 33.1439 40.1042 33.5073 40.1042 31.3267C40.1042 29.146 43.3854 25.875 45.5729 25.875C47.7604 25.875 49.2188 27.3288 49.2188 29.5094C49.2188 31.6901 47.7604 33.1439 45.5729 33.1439Z" fill="#9C9999"/>
</g>
<defs>
<filter id="filter0_d_13_149" x="0" y="0" width="63.6875" height="51.75" filterUnits="userSpaceOnUse" color-interpolation-filters="sRGB">
<feFlood flood-opacity="0" result="BackgroundImageFix"/>
<feColorMatrix in="SourceAlpha" type="matrix" values="0 0 0 0 0 0 0 0 0 0 0 0 0 0 0 0 0 0 127 0" result="hardAlpha"/>
<feOffset dx="5"/>
<feGaussianBlur stdDeviation="2"/>
<feComposite in2="hardAlpha" operator="out"/>
<feColorMatrix type="matrix" values="0 0 0 0 0 0 0 0 0 0 0 0 0 0 0 0 0 0 0.25 0"/>
<feBlend mode="normal" in2="BackgroundImageFix" result="effect1_dropShadow_13_149"/>
<feBlend mode="normal" in="SourceGraphic" in2="effect1_dropShadow_13_149" result="shape"/>
</filter>
</defs>
</svg>
